<?xml version="1.0" encoding="UTF-8"?>
<!DOCTYPE svg PUBLIC "-//W3C//DTD SVG 1.1//EN" "http://www.w3.org/Graphics/SVG/1.1/DTD/svg11.dtd">
<!-- Creator: CorelDRAW 2020 (64-Bit) -->
<svg xmlns="http://www.w3.org/2000/svg" xml:space="preserve" width="12.6998mm" height="9.9058mm" version="1.1" style="shape-rendering:geometricPrecision; text-rendering:geometricPrecision; image-rendering:optimizeQuality; fill-rule:evenodd; clip-rule:evenodd"
viewBox="0 0 1269.98 990.58"
 xmlns:xlink="http://www.w3.org/1999/xlink"
 xmlns:xodm="http://www.corel.com/coreldraw/odm/2003">
 <defs>
  <style type="text/css">
   <![CDATA[
    .fil0 {fill:#352E72}
   ]]>
  </style>
 </defs>
 <g id="Layer_x0020_1">
  <metadata id="CorelCorpID_0Corel-Layer"/>
  <path class="fil0" d="M685.78 117.26c0,64.89 35.4,83.56 73.19,128.76 18.3,21.9 51.4,46.31 74.66,76.79 16.97,22.24 42.31,38.32 57.7,61.31l-746.49 0c-52.81,-0.01 -71.45,-1.5 -102.22,24 -56.22,46.6 -56.94,128.78 -1.52,180.72 27.73,25.99 48.84,26.09 100.13,26.08l750.1 0 -170.47 179.33c-67.01,68.87 -35.61,199.32 87.53,199.32 54.69,0 111.93,-81.43 161.38,-130.72l261.47 -275.86c35.78,-35.31 38.75,-53.32 38.75,-101.89 0,-50.05 -68.7,-104.39 -110.92,-152.34l-216.42 -223.55c-50.38,-50.91 -76.08,-103.74 -148.68,-103.74 -61.52,0 -108.19,58.11 -108.19,111.79z"/>
 </g>
</svg>
