<svg id="iconfinder_N_P_079Artboard_27_7049365" xmlns="http://www.w3.org/2000/svg" width="70.76" height="51.621" viewBox="0 0 70.76 51.621">
  <path id="Shape" d="M65.112,51.525a.724.724,0,0,1-.361-.626V36.941H6.01V50.9a.724.724,0,0,1-1.447,0V36.941H.724A.724.724,0,0,1,0,36.208V30.417a.724.724,0,0,1,.724-.724H6.773V26.485a.724.724,0,0,1,.724-.724h3.069v-4.43a.724.724,0,0,1,.4-.649l6.723-3.318a2.888,2.888,0,0,1-.124-.8,2.919,2.919,0,1,1,.848,2.055l-6.4,3.16v3.979h9.194a.724.724,0,0,1,.724.724v3.208h3.782c.762-9,3.035-12.676,4.835-14.174a5.1,5.1,0,0,1,.643-.455,8.115,8.115,0,1,1,8.379,0,5.408,5.408,0,0,1,.643.455c1.8,1.493,4.072,5.177,4.835,14.174H70.037a.724.724,0,0,1,.724.724v5.8a.724.724,0,0,1-.724.724H66.2V50.9a.724.724,0,0,1-1.086.626Z" transform="translate(0)" fill="#3a5787"/>
</svg>
