<svg id="iconfinder_Tilda_Icons_1ed_teacher_3586376" xmlns="http://www.w3.org/2000/svg" width="39.404" height="51.621" viewBox="0 0 39.404 51.621">
  <path id="Shape" d="M5.009,17.727a11.228,11.228,0,0,1,1.948-6.345L.5,8.543A.838.838,0,0,1,0,7.765a.873.873,0,0,1,.5-.779L16.084.084a.709.709,0,0,1,.668,0s15.306,6.79,15.473,6.846c.779.333.835.668.835,1.113V19.563l1.5,3.674a.774.774,0,0,1-.056.779.674.674,0,0,1-.668.389H30.555a.951.951,0,0,1-.724-.389.779.779,0,0,1-.056-.779L31.5,19.563V8.766l-5.677,2.671A11.357,11.357,0,1,1,5.009,17.727Z" transform="translate(3.061 0)" fill="#3a5787"/>
  <path id="Shape-2" data-name="Shape" d="M.835,20.537A.855.855,0,0,1,0,19.7a19.7,19.7,0,1,1,39.4,0,.855.855,0,0,1-.834.835Z" transform="translate(0 31.084)" fill="#3a5787"/>
</svg>
