<svg id="conference" xmlns="http://www.w3.org/2000/svg" width="54.332" height="54.119" viewBox="0 0 54.332 54.119">
  <path id="Shape" d="M2.415,8.542A2.418,2.418,0,0,1,0,6.127V2.412A2.417,2.417,0,0,1,2.415,0H22.788A2.417,2.417,0,0,1,25.2,2.412V6.127a2.418,2.418,0,0,1-2.415,2.415Z" transform="translate(14.565 40.457)" fill="#3a5787"/>
  <path id="Shape-2" data-name="Shape" d="M9.739,54.119A1.8,1.8,0,0,1,7.965,52.54L4.111,37.457h-1.3A2.815,2.815,0,0,1,0,34.644V32.815A2.815,2.815,0,0,1,2.812,30h.53V25.49a.05.05,0,0,1,0-.013c0-.019,0-.038,0-.055a1.058,1.058,0,0,1,.245-.609l2.468-2.948a3.449,3.449,0,0,1,.276-4.027l.991-1.181a3.436,3.436,0,0,1,5.265,4.415L11.6,22.251a3.406,3.406,0,0,1-2.327,1.212c-.1.01-.209.015-.313.015a3.424,3.424,0,0,1-1.279-.247l-2.22,2.65V30H14c.085-5.959.983-8.921,5.271-10.977l1.7-1.741a6.55,6.55,0,0,1-2.136-4.468V8.329a8.328,8.328,0,1,1,16.657,0v4.488a6.55,6.55,0,0,1-2.136,4.468l1.7,1.743c4.289,2.057,5.185,5.017,5.27,10.976h8.534V25.88l-2.22-2.65a3.422,3.422,0,0,1-1.277.247c-.1,0-.206,0-.309-.013a3.418,3.418,0,0,1-2.332-1.214l-.986-1.18a3.437,3.437,0,0,1,.423-4.838,0,0,0,0,1,0,0,3.439,3.439,0,0,1,4.84.429l.989,1.176a3.443,3.443,0,0,1,.279,4.031l2.468,2.947a1.047,1.047,0,0,1,.23.5.479.479,0,0,1,.017.172V30h.533a2.815,2.815,0,0,1,2.812,2.812v1.83a2.815,2.815,0,0,1-2.812,2.812h-1.3L46.367,52.542a1.812,1.812,0,0,1-1.774,1.577Z" fill="#3a5787"/>
  <path id="Path" d="M1.061,2.122h0A1.061,1.061,0,1,0,0,1.061,1.06,1.06,0,0,0,1.064,2.122Z" transform="translate(26.1 35.335)" fill="#3a5787"/>
</svg>
